<svg width="22" height="22" viewBox="0 0 22 25" fill="none" xmlns="http://www.w3.org/2000/svg">
<path d="M7.28441 11.7044H4.8911V14.0977H7.28441V11.7044ZM12.071 11.7044H9.67771V14.0977H12.071V11.7044ZM16.8576 11.7044H14.4643V14.0977H16.8576V11.7044ZM19.2509 3.32788H18.0543V0.93457H15.661V3.32788H6.08776V0.93457H3.69445V3.32788H2.4978C1.86305 3.32788 1.25431 3.58003 0.805475 4.02886C0.356643 4.47769 0.104492 5.08644 0.104492 5.72118V22.4743C0.104492 23.1091 0.356643 23.7178 0.805475 24.1666C1.25431 24.6155 1.86305 24.8676 2.4978 24.8676H19.2509C19.8857 24.8676 20.4944 24.6155 20.9433 24.1666C21.3921 23.7178 21.6442 23.1091 21.6442 22.4743V5.72118C21.6442 5.08644 21.3921 4.47769 20.9433 4.02886C20.4944 3.58003 19.8857 3.32788 19.2509 3.32788ZM19.2509 22.4743H2.4978V9.31114H19.2509V22.4743Z" fill="#373270"/>
</svg>
