<svg width="26" height="26" viewBox="0 0 26 26" fill="none" xmlns="http://www.w3.org/2000/svg">
<path d="M22.8621 24.7473L16.1457 18.0222V19.5792C16.1457 20.3081 15.8863 20.9322 15.3676 21.4517C14.8488 21.9711 14.2259 22.2304 13.4989 22.2295C12.771 22.2295 12.1477 21.9698 11.6289 21.4504C11.1101 20.9309 10.8512 20.3072 10.852 19.5792V12.7547L0.363941 2.25277C0.121314 1.98774 0 1.67854 0 1.32516C0 0.971783 0.132342 0.66258 0.397026 0.397548C0.66171 0.132516 0.976243 0 1.34062 0C1.70501 0 2.0191 0.132516 2.2829 0.397548L24.748 22.8921C25.0126 23.1572 25.1397 23.4664 25.1291 23.8197C25.1185 24.1731 24.9804 24.4823 24.7149 24.7473C24.4502 24.9903 24.1414 25.1175 23.7885 25.129C23.4356 25.1405 23.1268 25.0133 22.8621 24.7473ZM17.2045 11.5951L15.3186 9.70679L20.0498 3.67732H9.29702L6.65018 1.027H22.7628C23.3142 1.027 23.7113 1.26994 23.9539 1.75584C24.1965 2.24173 24.1524 2.70553 23.8216 3.14725L17.2045 11.5951Z" fill="white"/>
</svg>
