<svg width="25" height="25" viewBox="0 0 25 25" fill="none" xmlns="http://www.w3.org/2000/svg">
<path d="M10.8512 24.8676C10.4285 24.8676 10.0739 24.724 9.7875 24.4368C9.50105 24.1496 9.35833 23.7946 9.35932 23.3718V14.3969L0.706307 3.32787C0.333332 2.82927 0.277137 2.30573 0.537722 1.75727C0.798307 1.2088 1.25234 0.93457 1.89983 0.93457H22.7864C23.4329 0.93457 23.8869 1.2088 24.1485 1.75727C24.4101 2.30573 24.3539 2.82927 23.9799 3.32787L15.3269 14.3969V23.3718C15.3269 23.7956 15.1837 24.1511 14.8972 24.4383C14.6108 24.7255 14.2567 24.8686 13.835 24.8676H10.8512ZM12.3431 13.3498L19.728 3.9262H4.95822L12.3431 13.3498Z" fill="#373270"/>
</svg>
